<svg width="100" height="100" viewBox="0 0 100 100" fill="none" xmlns="http://www.w3.org/2000/svg">
<path fill-rule="evenodd" clip-rule="evenodd" d="M99.9955 50.0027C99.9955 58.4147 94.3438 65.0021 84.9962 65.0021H69.6318C69.6765 65.1248 69.7229 65.2509 69.7708 65.3807C69.9098 65.7565 70.3014 66.7885 70.6817 67.7909C71.0184 68.6782 71.3462 69.5423 71.4822 69.9073C72.4328 72.4589 73.1265 74.5148 73.6878 76.5509C74.5362 79.6282 74.9966 82.4007 74.9966 85.0012C74.9966 92.3609 70.4562 96.932 63.7385 98.8881C60.7087 99.7704 58.0714 100.001 54.9975 100H52.6001L51.0991 98.1311C49.4034 96.0195 46.0729 92.2137 42.2332 87.826C35.1496 79.7316 26.3329 69.6569 22.8505 64.5847C21.9469 64.8531 20.9898 64.9972 19.9991 64.9972H9.99955C4.47695 64.9972 0 60.5202 0 54.9976V9.99963C0 4.47703 4.47695 7.62939e-05 9.99955 7.62939e-05H19.9991C23.4347 7.62939e-05 26.4656 1.73267 28.2658 4.37177C29.7825 3.39082 31.4748 2.57207 33.3141 1.91397C37.5255 0.407173 41.7024 -0.0554886 45.17 0.00791931L79.9964 0.00495911C93.7715 0.00495911 99.9955 20.2862 99.9955 50.0027ZM29.9987 55.0025C29.9987 56.2034 30.2209 57.2668 30.7073 58.4024C31.5809 60.4422 39.508 69.4862 47.0213 78.0581C50.899 82.4821 54.6665 86.7804 57.2973 89.9253C58.5544 89.831 59.7393 89.6378 60.943 89.2873C63.8081 88.453 64.9972 87.2559 64.9972 85.0011C64.9972 83.4183 64.6769 81.4897 64.048 79.2084C63.578 77.5036 62.9693 75.6997 62.1119 73.3983C61.9902 73.0717 61.6866 72.2716 61.3638 71.4207L61.3621 71.4163L61.361 71.4132C60.9683 70.3783 60.5479 69.2702 60.3922 68.8491C59.742 67.0911 59.3137 65.7967 59.0207 64.6205C57.7752 59.6205 59.0247 55.0025 64.9972 55.0025H84.9963C88.4522 55.0025 89.9961 53.2031 89.9961 50.0027C89.9961 26.05 85.0719 10.0045 79.9965 10.0045H44.9981C44.8498 10.0022 44.8498 10.0022 44.8134 10.0014C42.625 9.9622 39.5514 10.3027 36.6828 11.329C32.2585 12.912 29.9987 15.4931 29.9987 20.004V55.0025ZM9.99955 9.99963V54.9976H19.9991V9.99963H9.99955Z" fill="#617E8C"/>
</svg>
