<svg width="100" height="100" viewBox="0 0 100 100" fill="none" xmlns="http://www.w3.org/2000/svg">
<path fill-rule="evenodd" clip-rule="evenodd" d="M99.9955 49.9978C99.9955 41.5857 94.3438 34.9984 84.9962 34.9984H69.6318C69.6765 34.8757 69.7229 34.7495 69.7708 34.6198C69.9098 34.244 70.3014 33.212 70.6817 32.2096C71.0184 31.3223 71.3462 30.4582 71.4822 30.0932C72.4328 27.5415 73.1265 25.4857 73.6878 23.4496C74.5362 20.3723 74.9966 17.5998 74.9966 14.9993C74.9966 7.63963 70.4562 3.06845 63.7385 1.11238C60.7087 0.23013 58.0714 -0.000459158 54.9975 6.85986e-07H52.6001L51.0991 1.86934C49.4034 3.98102 46.0729 7.7868 42.2332 12.1745C35.1496 20.2689 26.3329 30.3436 22.8505 35.4157C21.9469 35.1474 20.9898 35.0033 19.9991 35.0033H9.99955C4.47695 35.0033 0 39.4803 0 45.0029V90.0009C0 95.5235 4.47695 100 9.99955 100H19.9991C23.4347 100 26.4656 98.2678 28.2658 95.6287C29.7825 96.6097 31.4748 97.4284 33.3141 98.0865C37.5255 99.5933 41.7024 100.056 45.17 99.9926L79.9964 99.9955C93.7715 99.9955 99.9955 79.7143 99.9955 49.9978ZM29.9987 44.998C29.9987 43.7971 30.2209 42.7337 30.7073 41.5981C31.5809 39.5583 39.508 30.5143 47.0213 21.9424C50.899 17.5184 54.6665 13.2201 57.2973 10.0752C58.5544 10.1695 59.7393 10.3627 60.943 10.7132C63.8081 11.5475 64.9972 12.7446 64.9972 14.9994C64.9972 16.5822 64.6769 18.5108 64.048 20.7921C63.578 22.4969 62.9693 24.3008 62.1119 26.6021C61.9902 26.9287 61.6866 27.7289 61.3638 28.5798L61.3621 28.5842L61.361 28.5873C60.9683 29.6222 60.5479 30.7302 60.3922 31.1514C59.742 32.9094 59.3137 34.2038 59.0207 35.38C57.7752 40.38 59.0247 44.998 64.9972 44.998H84.9963C88.4522 44.998 89.9961 46.7974 89.9961 49.9978C89.9961 73.9504 85.0719 89.996 79.9965 89.996H44.9981C44.8498 89.9983 44.8498 89.9983 44.8134 89.999C42.625 90.0383 39.5514 89.6978 36.6828 88.6715C32.2585 87.0885 29.9987 84.5074 29.9987 79.9965V44.998ZM9.99955 90.0009V45.0029H19.9991V90.0009H9.99955Z" fill="#617E8C"/>
</svg>
