<svg width="100" height="100" viewBox="0 0 100 100" fill="none" xmlns="http://www.w3.org/2000/svg">
<path fill-rule="evenodd" clip-rule="evenodd" d="M0 50C0 77.6142 22.3858 100 50 100C77.6142 100 100 77.6142 100 50C100 22.3858 77.6142 0 50 0C22.3858 0 0 22.3858 0 50ZM90.9091 50C90.9091 72.5935 72.5935 90.9091 50 90.9091C27.4065 90.9091 9.09091 72.5935 9.09091 50C9.09091 27.4065 27.4065 9.09091 50 9.09091C72.5935 9.09091 90.9091 27.4065 90.9091 50ZM50.0015 72.7198C52.5127 72.7198 54.5484 70.6847 54.5484 68.1743C54.5484 65.6639 52.5127 63.6289 50.0015 63.6289C47.4903 63.6289 45.4545 65.6639 45.4545 68.1743C45.4545 70.6847 47.4903 72.7198 50.0015 72.7198ZM45.4545 59.0909H54.5455C54.5455 55.462 55.1155 54.7969 58.851 52.9292C65.3428 49.6833 68.1818 46.3711 68.1818 38.6364C68.1818 28.7301 60.3834 22.7273 50 22.7273C39.9585 22.7273 31.8182 30.8675 31.8182 40.9091H40.9091C40.9091 35.8883 44.9792 31.8182 50 31.8182C55.8053 31.8182 59.0909 34.3473 59.0909 38.6364C59.0909 42.2652 58.5208 42.9303 54.7854 44.7981C48.2935 48.044 45.4545 51.3561 45.4545 59.0909Z" fill="#617E8C"/>
</svg>
