<svg width="32" height="32" viewBox="0 0 32 32" fill="none" xmlns="http://www.w3.org/2000/svg">
<path fill-rule="evenodd" clip-rule="evenodd" d="M16 32C7.16344 32 0 24.8366 0 16C0 7.16344 7.16344 0 16 0C24.8366 0 32 7.16344 32 16C32 24.8366 24.8366 32 16 32ZM26.7629 23.4542C28.2308 21.3388 29.091 18.7699 29.091 16.0001C29.091 8.77018 23.23 2.90918 16.0001 2.90918C8.77018 2.90918 2.90918 8.77018 2.90918 16.0001C2.90918 18.7698 3.76935 21.3387 5.23712 23.454C6.87418 21.2918 10.7209 20.3637 16 20.3637C21.2792 20.3637 25.126 21.2919 26.7629 23.4542ZM24.6759 25.8035C24.2503 24.2726 21.1919 23.2728 16 23.2728C10.8082 23.2728 7.74991 24.2726 7.32408 25.8033C9.63389 27.849 12.672 29.091 16.0001 29.091C19.3281 29.091 22.3661 27.8491 24.6759 25.8035ZM16.0001 7.27279C12.4788 7.27279 10.182 9.82662 10.182 13.091C10.182 18.0762 12.7432 20.3637 16.0001 20.3637C19.2265 20.3637 21.8183 18.1522 21.8183 13.3819C21.8183 10.0678 19.5117 7.27279 16.0001 7.27279ZM13.0908 13.0909C13.0908 16.3917 14.2809 17.4546 15.9999 17.4546C17.7129 17.4546 18.909 16.4341 18.909 13.3818C18.909 11.5643 17.7681 10.1818 15.9999 10.1818C14.1581 10.1818 13.0908 11.3685 13.0908 13.0909Z" fill="#D0D9DE"/>
</svg>
