<svg width="48" height="48" viewBox="0 0 48 48" fill="none" xmlns="http://www.w3.org/2000/svg">
<path fill-rule="evenodd" clip-rule="evenodd" d="M24 48C10.7452 48 0 37.2548 0 24C0 10.7452 10.7452 0 24 0C37.2548 0 48 10.7452 48 24C48 37.2548 37.2548 48 24 48ZM40.1444 35.1812C42.3461 32.0081 43.6364 28.1548 43.6364 24.0001C43.6364 13.1553 34.8449 4.36377 24 4.36377C13.1552 4.36377 4.36367 13.1553 4.36367 24.0001C4.36367 28.1548 5.65396 32.0081 7.85569 35.1812C10.3112 31.9377 16.0814 30.5456 24 30.5456C31.9187 30.5456 37.6889 31.9377 40.1444 35.1812ZM37.0139 38.7051C36.3753 36.4089 31.7878 34.9092 24 34.9092C16.2123 34.9092 11.6248 36.4089 10.9862 38.7051C14.4509 41.7736 19.0079 43.6365 24 43.6365C28.9922 43.6365 33.5492 41.7736 37.0139 38.7051ZM24 10.9092C18.7181 10.9092 15.2728 14.7399 15.2728 19.6365C15.2728 27.1144 19.1146 30.5455 24 30.5455C28.8395 30.5455 32.7273 27.2283 32.7273 20.0728C32.7273 15.1017 29.2674 10.9092 24 10.9092ZM19.6363 19.6364C19.6363 24.5875 21.4215 26.1818 24 26.1818C26.5695 26.1818 28.3636 24.6511 28.3636 20.0728C28.3636 17.3464 26.6523 15.2728 24 15.2728C21.2372 15.2728 19.6363 17.0527 19.6363 19.6364Z" fill="#152338"/>
</svg>
