<svg width="32" height="32" viewBox="0 0 32 32" fill="none" xmlns="http://www.w3.org/2000/svg">
<path fill-rule="evenodd" clip-rule="evenodd" d="M16 32C7.16344 32 0 24.8366 0 16C0 7.16344 7.16344 0 16 0C24.8366 0 32 7.16344 32 16C32 24.8366 24.8366 32 16 32ZM15.9999 29.0909C23.2298 29.0909 29.0908 23.2299 29.0908 16C29.0908 8.7701 23.2298 2.9091 15.9999 2.9091C8.77002 2.9091 2.90902 8.7701 2.90902 16C2.90902 23.2299 8.77002 29.0909 15.9999 29.0909ZM15.574 17.8805L12.2389 14.5454H18.9091C20.5158 14.5454 21.8182 15.8478 21.8182 17.4545C21.8182 19.0611 20.5158 20.3636 18.9091 20.3636V23.2727C22.1224 23.2727 24.7273 20.6678 24.7273 17.4545C24.7273 14.2412 22.1224 11.6363 18.9091 11.6363H12.2389L15.574 8.30118L13.5169 6.24414L6.67025 13.0908L13.5169 19.9375L15.574 17.8805Z" fill="#D0D9DE"/>
</svg>
