<svg width="229" height="40" viewBox="0 0 229 40" fill="none" xmlns="http://www.w3.org/2000/svg">
<path d="M61.5269 24.4047V38.9244H66.9264V24.4047C66.9264 19.0452 71.0368 14.6846 76.0869 14.6846V8.95807C68.0582 8.96039 61.5269 15.888 61.5269 24.4047Z" fill="#FFD401"/>
<path d="M151.996 12.7495L148.177 8.69794L137.241 20.2974L126.305 8.69794L122.487 12.7495L133.422 24.349L122.487 35.9485L126.305 40L137.241 28.4006L148.177 40L151.996 35.9485L141.06 24.349L151.996 12.7495Z" fill="#FFD401"/>
<path d="M107.13 14.687C111.243 14.687 114.731 17.577 115.886 21.5426H98.3748C99.5297 17.5747 103.018 14.687 107.13 14.687ZM121.443 27.2599C121.607 26.3353 121.693 25.3805 121.693 24.4047C121.693 15.8881 115.161 8.96045 107.13 8.96045C99.1015 8.96045 92.5679 15.8904 92.5679 24.4047C92.5679 32.9237 99.1015 39.8514 107.13 39.8514C111.863 39.8514 116.076 37.4446 118.737 33.7229L114.384 30.3334C114.368 30.3543 114.351 30.3752 114.337 30.3961C112.659 32.6635 110.053 34.1225 107.13 34.1225C103.018 34.1225 99.5297 31.2325 98.3748 27.2645H121.427" fill="#FFD401"/>
<path d="M86.3515 0H80.9519V38.9243H86.3515V15.5697H91.8089V9.84318H86.3515V0Z" fill="#FFD401"/>
<path d="M50.811 12.4382C48.3022 10.266 45.1037 8.95807 41.6204 8.95807C36.1862 8.95807 31.2402 12.1315 28.7406 17.1936L22.6791 28.9209C21.0891 32.1315 17.9785 34.1247 14.5624 34.1247C9.51001 34.1247 5.4019 29.7642 5.4019 24.4047C5.4019 19.0452 9.51232 14.6846 14.5624 14.6846C18.7052 14.6846 22.2093 17.6165 23.3387 21.6262L26.4632 15.5814C23.8271 11.5948 19.4922 8.95807 14.5624 8.95807C6.53365 8.95807 0 15.888 0 24.4047C0 32.9237 6.53134 39.8513 14.5624 39.8513C19.9898 39.8513 24.9311 36.6849 27.4353 31.6297L33.4968 19.9001C35.0868 16.6849 38.1974 14.6846 41.6181 14.6846C46.6705 14.6846 50.7786 19.0452 50.7786 24.4047C50.7786 29.7642 46.6682 34.1247 41.6181 34.1247C37.4614 34.1247 33.9481 31.1697 32.8302 27.1367L29.6988 33.1978C32.3326 37.2029 36.6768 39.8513 41.6181 39.8513C45.1013 39.8513 48.2999 38.5434 50.8087 36.3712V38.922H56.2083V10.0918H50.8087V12.4382H50.811Z" fill="#FFD401"/>
<path d="M195.102 9.97797H189.779V38.8524H195.102V9.97797Z" fill="white"/>
<path d="M228.263 10.0779H200.099V15.4211H217.409L199.472 38.6782H227.442V33.3349H210.324L228.263 10.0779Z" fill="white"/>
<path d="M171.006 9.18574C167.477 9.18574 164.237 10.496 161.707 12.6774V0H156.384V23.9447C156.379 24.1189 156.37 24.2932 156.37 24.4697C156.37 24.6463 156.377 24.8205 156.384 24.9948V38.85H161.707V36.262C164.237 38.4411 167.479 39.7537 171.006 39.7537C179.077 39.7537 185.643 32.8981 185.643 24.4697C185.643 16.0413 179.077 9.18574 171.006 9.18574ZM171.006 34.4105C166.035 34.4105 161.959 30.2311 161.707 24.9901V23.9517C161.961 18.7106 166.035 14.5313 171.006 14.5313C176.142 14.5313 180.32 18.9894 180.32 24.472C180.32 29.9524 176.142 34.4105 171.006 34.4105Z" fill="white"/>
</svg>
