<svg width="42" height="42" viewBox="0 0 42 42" fill="none" xmlns="http://www.w3.org/2000/svg">
<path fill-rule="evenodd" clip-rule="evenodd" d="M39.6375 0.166504L41.708 37.4354C41.8356 39.733 40.0765 41.6991 37.7789 41.8268C37.6635 41.8321 37.6634 41.8321 37.5481 41.8332H37.548H37.5477H4.45231C2.15112 41.8332 0.285645 39.9677 0.285645 37.6665C0.286179 37.6087 0.286447 37.5798 0.287249 37.5509C0.288051 37.522 0.289387 37.4931 0.29206 37.4354L2.36255 0.166504H39.6375ZM6.30416 4.33317L4.45231 37.6665H37.5477L35.6959 4.33317H6.30416ZM14.75 8.49984H10.5834V13.7082C10.5834 18.7096 15.4234 23.0832 21 23.0832C26.5766 23.0832 31.4167 18.7096 31.4167 13.7082V8.49984H27.25V13.7082C27.25 16.3089 24.3643 18.9165 21 18.9165C17.6357 18.9165 14.75 16.3089 14.75 13.7082V8.49984Z" fill="#D0D9DE"/>
</svg>
