<svg width="70" height="70" viewBox="0 0 70 70" fill="none" xmlns="http://www.w3.org/2000/svg">
<path fill-rule="evenodd" clip-rule="evenodd" d="M12.2396 17.5C11.0909 15.6218 10.5 13.31 10.5 10.5C10.5 4.9598 14.6662 0 21 0C27.342 0 32.4564 4.24769 35 10.8984C37.5436 4.24769 42.658 0 49 0C55.3338 0 59.5 4.9598 59.5 10.5C59.5 13.31 58.9091 15.6218 57.7604 17.5H63C66.866 17.5 70 20.634 70 24.5V31.5C70 35.366 66.866 38.5 63 38.5V63C63 66.866 59.866 70 56 70H14C10.134 70 7 66.866 7 63V38.5C3.13401 38.5 0 35.366 0 31.5V24.5C0 20.634 3.13401 17.5 7 17.5H12.2396ZM31.5 24.5H7V31.5H31.5V24.5ZM63 31.5H38.5V24.5H63V31.5ZM31.5 63V38.5H14V63H31.5ZM56 63H38.5V38.5H56V63ZM21 7C18.8288 7 17.5 8.58187 17.5 10.5C17.5 14.8863 21.0595 16.9719 29.503 17.4107C28.5646 10.8906 25.0676 7 21 7ZM40.25 17.4107C41.1884 10.8906 44.6854 7 48.753 7C50.9242 7 52.253 8.58187 52.253 10.5C52.253 14.8863 48.6935 16.9719 40.25 17.4107Z" fill="#152338"/>
</svg>
