<svg width="70" height="65" viewBox="0 0 70 65" fill="none" xmlns="http://www.w3.org/2000/svg">
<path fill-rule="evenodd" clip-rule="evenodd" d="M49.4876 5.12331e-05C44.8813 -4.89488e-06 41.9122 0.548749 38.5084 2.21478C37.2483 2.8316 36.066 3.57443 34.9681 4.44106C33.9124 3.62301 32.7774 2.91429 31.5694 2.31679C28.0997 0.600649 24.9782 0 20.5372 0C8.64321 0 0 9.85494 0 22.6542C0 32.3201 5.38946 41.6573 15.4281 50.686C20.6974 55.4252 27.4251 60.1151 32.2433 62.6101L35 64.0377L37.7567 62.6101C42.5749 60.1151 49.3026 55.4252 54.5719 50.686C64.6105 41.6573 70 32.3201 70 22.6542C70 9.99041 61.2753 0.0488674 49.4876 5.12331e-05ZM63.6364 22.6542C63.6364 30.227 59.1378 38.0206 50.3164 45.9546C45.5069 50.2802 39.324 54.603 35 56.8709C30.676 54.603 24.4931 50.2802 19.6836 45.9546C10.8622 38.0206 6.36364 30.227 6.36364 22.6542C6.36364 13.1973 12.357 6.36364 20.5372 6.36364C24.0682 6.36364 26.244 6.78233 28.7482 8.02086C30.2273 8.75245 31.5346 9.71845 32.6662 10.9256L35.0074 13.4231L37.3273 10.9058C38.4844 9.6503 39.8109 8.6623 41.3061 7.93045C43.7369 6.74066 45.7768 6.36364 49.4744 6.36366C57.5534 6.39714 63.6364 13.3285 63.6364 22.6542Z" fill="#152338"/>
</svg>
