<svg width="48" height="48" viewBox="0 0 48 48" fill="none" xmlns="http://www.w3.org/2000/svg">
<path fill-rule="evenodd" clip-rule="evenodd" d="M4.8 12H9.6V0H38.4V12H43.2C45.851 12 48 14.149 48 16.8V36C48 38.651 45.851 40.8 43.2 40.8H38.4V48H9.6V40.8H4.8C2.14903 40.8 0 38.651 0 36V16.8C0 14.149 2.14903 12 4.8 12ZM33.6 12H14.4V4.8H33.6V12ZM43.2 36H38.4V31.2H9.6V36H4.8V16.8H43.2V36ZM33.5999 36H14.3999V43.2001H33.5999V36ZM40.8 21.6C40.8 20.2745 39.7255 19.2 38.4 19.2C37.0745 19.2 36 20.2745 36 21.6C36 22.9255 37.0745 24 38.4 24C39.7255 24 40.8 22.9255 40.8 21.6Z" fill="#152338"/>
</svg>
