<svg width="60" height="60" viewBox="0 0 60 60" fill="none" xmlns="http://www.w3.org/2000/svg">
<path fill-rule="evenodd" clip-rule="evenodd" d="M27.009 13.2418C28.7181 15.1363 28.1762 17.2825 26.6651 19.319C26.3068 19.8018 25.8938 20.2775 25.3951 20.8017C25.1557 21.0533 24.969 21.2425 24.5785 21.6334C23.6917 22.5211 22.9463 23.2669 22.3421 23.871C22.0491 24.164 24.0494 28.1612 27.9315 32.0471C31.8114 35.9309 35.8084 37.9326 36.1028 37.638L38.3377 35.4019C39.5684 34.17 40.2202 33.5756 41.1158 32.988C42.9777 31.7665 45.0085 31.4346 46.7213 32.9661C52.3137 36.9664 55.4784 39.4212 57.0287 41.0321C60.0528 44.1742 59.6564 49.0108 57.0459 51.77C56.1407 52.7268 54.9929 53.8752 53.6372 55.1821C45.4369 63.387 28.1304 58.3938 14.8668 45.1172C1.60021 31.8376 -3.39029 14.5294 4.79285 6.34186C6.26196 4.84966 6.74634 4.36553 8.17713 2.95572C10.841 0.330916 15.9007 -0.0800737 18.9765 2.95832C20.5944 4.55652 23.1737 7.87521 27.009 13.2418ZM42.4606 39.5263L40.2253 41.7628C36.4257 45.5645 29.955 42.3239 23.8081 36.171C17.657 30.0138 14.42 23.5455 18.2209 19.745C18.8242 19.1416 19.569 18.3965 20.4551 17.5095C20.8126 17.1516 20.9762 16.9859 21.1725 16.7795C21.4399 16.4985 21.6597 16.2516 21.8357 16.0331C18.4367 11.2984 16.1261 8.33986 14.8805 7.1094C14.2372 6.47394 12.7968 6.59094 12.268 7.11199C10.8576 8.50167 10.394 8.96502 8.93082 10.4511C3.66824 15.7166 7.69693 29.6889 18.9902 40.9933C30.28 52.2942 44.2502 56.3248 49.5528 51.0199C50.8874 49.7327 51.9749 48.6445 52.812 47.7598C53.4169 47.1205 53.525 45.8013 52.8292 45.0784C51.6703 43.8742 48.833 41.6621 43.934 38.144C43.5769 38.4314 43.138 38.8483 42.4606 39.5263ZM54.1877 1.68748L41.6667 14.2084L34.9791 7.52082L30.8543 11.6456L41.6667 22.458L58.3125 5.81227L54.1877 1.68748Z" fill="#253238"/>
</svg>
