<svg width="60" height="60" viewBox="0 0 60 60" fill="none" xmlns="http://www.w3.org/2000/svg">
<path fill-rule="evenodd" clip-rule="evenodd" d="M18.333 21.2502C18.333 9.97435 27.4739 0.833496 38.7497 0.833496C50.0255 0.833496 59.1663 9.97435 59.1663 21.2502C59.1663 32.526 50.0255 41.6668 38.7497 41.6668H32.9163V47.5002H27.083V53.3335H21.2497V59.1668H0.833008V43.3754L18.7647 25.4437C18.4787 24.0749 18.333 22.6715 18.333 21.2502ZM27.083 35.8335H38.7497C46.8038 35.8335 53.333 29.3043 53.333 21.2502C53.333 13.196 46.8038 6.66683 38.7497 6.66683C30.6955 6.66683 24.1663 13.196 24.1663 21.2502C24.1663 22.7045 24.3784 24.1271 24.7907 25.4877L25.2977 27.1603L6.66634 45.7916V53.3335H15.4163V47.5002H21.2497V41.6668H27.083V35.8335ZM32.9163 21.2502C32.9163 24.4718 35.528 27.0835 38.7497 27.0835C41.9713 27.0835 44.583 24.4718 44.583 21.2502C44.583 18.0285 41.9713 15.4168 38.7497 15.4168C35.528 15.4168 32.9163 18.0285 32.9163 21.2502Z" fill="#253238"/>
</svg>
