<svg width="58" height="60" viewBox="0 0 58 60" fill="none" xmlns="http://www.w3.org/2000/svg">
<path fill-rule="evenodd" clip-rule="evenodd" d="M55.0926 0.833496L57.9913 53.0099C58.17 56.2266 55.7072 58.9792 52.4905 59.1579C52.3288 59.1653 52.3288 59.1653 52.1669 59.1668H5.83333C2.61167 59.1668 0 56.5552 0 53.3335V53.3335C0.00074901 53.2526 0.0011234 53.2121 0.0022459 53.1716C0.00336848 53.1312 0.00523905 53.0908 0.00897991 53.0099L0.00898123 53.0099L2.90767 0.833496H55.0926ZM8.42593 6.66683L5.83333 53.3335H52.1669L49.5743 6.66683H8.42593ZM20.2501 12.5002H14.4168V19.7918C14.4168 26.7939 21.1929 32.9168 29.0001 32.9168C36.8074 32.9168 43.5835 26.7939 43.5835 19.7918V12.5002H37.7501V19.7918C37.7501 23.4329 33.7101 27.0835 29.0001 27.0835C24.2901 27.0835 20.2501 23.4329 20.2501 19.7918V12.5002Z" fill="white"/>
</svg>
