<svg width="48" height="48" viewBox="0 0 48 48" fill="none" xmlns="http://www.w3.org/2000/svg">
<path fill-rule="evenodd" clip-rule="evenodd" d="M24 48C10.7452 48 0 37.2548 0 24C0 10.7452 10.7452 0 24 0C37.2548 0 48 10.7452 48 24C48 37.2548 37.2548 48 24 48ZM24 43.6364C34.8449 43.6364 43.6364 34.8449 43.6364 24C43.6364 13.1551 34.8449 4.36364 24 4.36364C13.1551 4.36364 4.36364 13.1551 4.36364 24C4.36364 34.8449 13.1551 43.6364 24 43.6364ZM31.1845 15.9119L19.6364 27.4601L14.6337 22.4574L11.5482 25.5429L19.6364 33.6312L34.2701 18.9975L31.1845 15.9119Z" fill="#253238"/>
</svg>
