<svg width="70" height="73" viewBox="0 0 70 73" fill="none" xmlns="http://www.w3.org/2000/svg">
<path fill-rule="evenodd" clip-rule="evenodd" d="M35 72.234C15.67 72.234 0 56.2306 0 36.4893C0 16.7481 15.67 0.744629 35 0.744629C54.33 0.744629 70 16.7481 70 36.4893C70 56.2306 54.33 72.234 35 72.234ZM58.5437 53.1418C61.7544 48.4159 63.636 42.6771 63.636 36.4894C63.636 20.3374 50.8151 7.24373 34.9996 7.24373C19.1842 7.24373 6.36328 20.3374 6.36328 36.4894C6.36328 42.6772 8.245 48.4163 11.4559 53.1422C15.0347 48.3141 23.4419 46.2403 34.9799 46.2379C27.8648 46.2284 22.2725 41.1173 22.2725 29.9903C22.2725 22.6976 27.2969 16.9922 34.9997 16.9922C42.6813 16.9922 47.727 23.2364 47.727 30.6402C47.727 41.2873 42.068 46.2285 35.0197 46.2379C46.5575 46.2402 54.9647 48.314 58.5437 53.1418ZM53.9784 58.3901C53.047 54.9704 46.3569 52.7369 34.9999 52.7369C23.6425 52.7369 16.9523 54.9706 16.0213 58.3906C21.074 62.9606 27.7196 65.735 34.9996 65.735C42.28 65.735 48.9257 62.9604 53.9784 58.3901ZM28.6367 29.9903C28.6367 37.3643 31.2401 39.7389 35.0004 39.7389C38.7476 39.7389 41.364 37.459 41.364 30.6402C41.364 26.5797 38.8684 23.4913 35.0004 23.4913C30.9713 23.4913 28.6367 26.1423 28.6367 29.9903Z" fill="#152338"/>
</svg>
