<svg width="48" height="48" viewBox="0 0 48 48" fill="none" xmlns="http://www.w3.org/2000/svg">
<path fill-rule="evenodd" clip-rule="evenodd" d="M41 2H37V8H31V12H37V18H41V12H47V8H41V2Z" fill="#152338"/>
<path fill-rule="evenodd" clip-rule="evenodd" d="M0 24C0 37.2548 10.7452 48 24 48C37.2548 48 48 37.2548 48 24C48 20.8173 47.3805 17.7793 46.2555 15H43V19.0225C43.4153 20.6122 43.6364 22.2803 43.6364 24.0001C43.6364 28.1548 42.3461 32.0081 40.1444 35.1812C37.6889 31.9377 31.9187 30.5456 24 30.5456C16.0814 30.5456 10.3112 31.9377 7.85569 35.1812C5.65396 32.0081 4.36367 28.1548 4.36367 24.0001C4.36367 13.1553 13.1552 4.36377 24 4.36377C26.7948 4.36377 29.4532 4.94762 31.8599 6H35V2.66363C31.7048 0.961339 27.9647 0 24 0C10.7452 0 0 10.7452 0 24ZM31 14.8558C29.5107 12.4876 26.9592 10.9092 23.7273 10.9092C18.4453 10.9092 15 14.7399 15 19.6365C15 27.1144 18.8419 30.5455 23.7273 30.5455C28.5667 30.5455 32.4545 27.2283 32.4545 20.0728C32.4545 18.2134 31.9705 16.4629 31.0888 15H31V14.8558ZM24 34.9092C31.7878 34.9092 36.3753 36.4089 37.0139 38.7051C33.5492 41.7736 28.9922 43.6365 24 43.6365C19.0079 43.6365 14.4509 41.7736 10.9862 38.7051C11.6248 36.4089 16.2123 34.9092 24 34.9092ZM23.7272 26.1818C21.1487 26.1818 19.3635 24.5874 19.3635 19.6363C19.3635 17.0527 20.9644 15.2727 23.7272 15.2727C26.3795 15.2727 28.0908 17.3463 28.0908 20.0727C28.0908 24.651 26.2967 26.1818 23.7272 26.1818Z" fill="#152338"/>
</svg>
