<svg width="110" height="100" viewBox="0 0 110 100" fill="none" xmlns="http://www.w3.org/2000/svg">
<path fill-rule="evenodd" clip-rule="evenodd" d="M77.2788 8.00046e-05C70.0858 -7.64375e-06 65.4492 0.856915 60.1341 3.45855C58.1662 4.42177 56.32 5.58176 54.6055 6.93507C52.957 5.65763 51.1846 4.55089 49.2982 3.61786C43.8799 0.937962 39.0054 0 32.0705 0C13.4971 0 0 15.3893 0 35.3763C0 50.4705 8.41608 65.0512 24.0923 79.1503C32.3206 86.5509 42.8265 93.8746 50.3505 97.7708L54.6553 100L58.9602 97.7708C66.4841 93.8746 76.99 86.5509 85.2184 79.1503C100.895 65.0512 109.311 50.4705 109.311 35.3763C109.311 15.6008 95.6863 0.0763104 77.2788 8.00046e-05ZM99.3733 35.3763C99.3733 47.2018 92.3485 59.3722 78.5731 71.7617C71.0628 78.5166 61.4076 85.267 54.6553 88.8084C47.9031 85.267 38.2479 78.5166 30.7375 71.7617C16.9621 59.3722 9.93733 47.2018 9.93733 35.3763C9.93733 20.6086 19.2965 9.93733 32.0705 9.93733C37.5844 9.93733 40.9822 10.5912 44.8926 12.5252C47.2024 13.6677 49.2438 15.1762 51.011 17.0613L54.667 20.9613L58.2897 17.0303C60.0965 15.0697 62.168 13.5269 64.5029 12.384C68.2987 10.5261 71.4842 9.93733 77.2582 9.93737C89.8743 9.98966 99.3733 20.8136 99.3733 35.3763Z" fill="#617E8C"/>
</svg>
