<svg width="39" height="48" viewBox="0 0 39 48" fill="none" xmlns="http://www.w3.org/2000/svg">
<path fill-rule="evenodd" clip-rule="evenodd" d="M7.2 12V19.2H4.8C2.23596 19.2 0 21.0633 0 23.6V43.6C0 46.1367 2.23596 48 4.8 48H33.6C36.164 48 38.4 46.1367 38.4 43.6V23.6C38.4 21.0633 36.164 19.2 33.6 19.2H31.2V12C31.2 5.37258 25.8274 0 19.2 0C12.5726 0 7.2 5.37258 7.2 12ZM26.4 12V19.2H12V12C12 8.02355 15.2235 4.8 19.2 4.8C23.1764 4.8 26.4 8.02355 26.4 12ZM4.80009 43.2001V24.0001H33.6001V43.2001H4.80009ZM21.5999 33.6C21.5999 34.9255 20.5254 36 19.1999 36C17.8744 36 16.7999 34.9255 16.7999 33.6C16.7999 32.2745 17.8744 31.2 19.1999 31.2C20.5254 31.2 21.5999 32.2745 21.5999 33.6Z" fill="#253238"/>
</svg>
