<svg width="49" height="48" viewBox="0 0 49 48" fill="none" xmlns="http://www.w3.org/2000/svg">
<path fill-rule="evenodd" clip-rule="evenodd" d="M10.3218 4.8061C9.89553 4.80518 9.48465 4.85343 9.0942 4.94514C8.55896 3.76544 7.85196 2.70706 7.04784 1.90294C5.68302 0.538129 3.53051 0 0.550781 0V4.8C2.37106 4.8 3.41854 5.06187 3.65372 5.29706C4.56085 6.20419 5.35078 8.04735 5.35078 9.6L5.3749 9.93941L7.72659 26.4012C3.79163 26.6054 0.743256 29.6612 0.55373 33.4811L0.550781 36C0.783152 39.9454 3.82139 42.9805 7.61455 43.1961L8.1594 43.197C9.14695 45.995 11.8147 48 14.9508 48C18.0857 48 20.7527 45.9965 21.7411 43.2H27.3605C28.3489 45.9965 31.0159 48 34.1508 48C38.1272 48 41.3508 44.7765 41.3508 40.8C41.3508 36.8236 38.1272 33.6 34.1508 33.6C31.0159 33.6 28.3489 35.6035 27.3605 38.4H21.7411C20.7527 35.6035 18.0857 33.6 14.9508 33.6C11.8159 33.6 9.14888 35.6035 8.16048 38.4H7.75078C6.5268 38.3265 5.42887 37.2298 5.34647 35.8563L5.35078 33.6C5.4155 32.3551 6.50593 31.2647 7.86971 31.1971L12.6076 31.1982L12.642 31.2H36.8312L37.1855 31.0876C39.0052 30.5102 40.4619 29.1399 41.1516 27.3661L41.4044 26.8656L41.4141 26.8465L41.4154 26.844C41.7445 26.1923 41.7496 26.1821 42.226 25.2381C43.0758 23.5534 43.9257 21.8658 44.7539 20.2171C46.7825 16.1786 48.0583 13.612 48.3408 12.9817C49.7917 9.74508 46.8526 7.25391 43.8485 7.20086L10.3218 4.8061ZM35.9962 26.4H12.8205C12.6664 26.3572 12.549 26.2266 12.526 26.064L10.1742 9.60176L43.4937 11.9878C42.9107 13.1768 41.8509 15.3004 40.4635 18.0626L40.4287 18.1318C39.6367 19.7085 38.788 21.3937 37.9392 23.0762L37.4238 24.0975L37.1188 24.7016L36.8077 25.3172L36.6907 25.5893C36.5653 25.9386 36.3164 26.2256 35.9962 26.4ZM34.1508 43.2C35.4763 43.2 36.5508 42.1255 36.5508 40.8C36.5508 39.4745 35.4763 38.4 34.1508 38.4C32.8253 38.4 31.7508 39.4745 31.7508 40.8C31.7508 42.1255 32.8253 43.2 34.1508 43.2ZM17.3508 40.8C17.3508 42.1255 16.2763 43.2 14.9508 43.2C13.6253 43.2 12.5508 42.1255 12.5508 40.8C12.5508 39.4745 13.6253 38.4 14.9508 38.4C16.2763 38.4 17.3508 39.4745 17.3508 40.8Z" fill="#152338"/>
</svg>
