<svg width="536" height="94" viewBox="0 0 536 94" fill="none" xmlns="http://www.w3.org/2000/svg">
<path d="M144.404 57.3376V91.4155H157.077V57.3376C157.077 44.7588 166.724 34.5246 178.577 34.5246V21.0842C159.733 21.0897 144.404 37.3489 144.404 57.3376Z" fill="#FFD401"/>
<path d="M356.736 29.9829L347.773 20.4738L322.107 47.6979L296.441 20.4738L287.478 29.9829L313.144 57.207L287.478 84.4311L296.441 93.9402L322.107 66.7161L347.773 93.9402L356.736 84.4311L331.07 57.207L356.736 29.9829Z" fill="#FFD401"/>
<path d="M251.436 34.5303C261.089 34.5303 269.275 41.3132 271.986 50.6205H230.887C233.598 41.3077 241.784 34.5303 251.436 34.5303ZM285.028 64.039C285.413 61.8689 285.614 59.628 285.614 57.3379C285.614 37.3492 270.285 21.09 251.436 21.09C232.593 21.09 217.258 37.3546 217.258 57.3379C217.258 77.3321 232.593 93.5914 251.436 93.5914C262.545 93.5914 272.431 87.9426 278.678 79.2078L268.46 71.2526C268.422 71.3017 268.384 71.3508 268.351 71.3998C264.413 76.7214 258.297 80.1456 251.436 80.1456C241.784 80.1456 233.598 73.3627 230.887 64.0499H284.99" fill="#FFD401"/>
<path d="M202.668 0.0596924H189.995V91.4157H202.668V36.6021H215.477V23.1618H202.668V0.0596924Z" fill="#FFD401"/>
<path d="M119.254 29.252C113.366 24.154 105.859 21.0842 97.6838 21.0842C84.9294 21.0842 73.3212 28.5323 67.4547 40.4132L53.2282 67.9372C49.4964 75.4725 42.1958 80.1508 34.1782 80.1508C22.3201 80.1508 12.6783 69.9165 12.6783 57.3377C12.6783 44.7588 22.3256 34.5246 34.1782 34.5246C43.9015 34.5246 52.1256 41.4056 54.7764 50.8165L62.1096 36.6292C55.9225 27.2728 45.7484 21.0842 34.1782 21.0842C15.3346 21.0842 0 37.3489 0 57.3377C0 77.3318 15.3291 93.5911 34.1782 93.5911C46.9162 93.5911 58.5136 86.1594 64.391 74.2948L78.6174 46.7653C82.3492 39.2191 89.6498 34.5246 97.6783 34.5246C109.536 34.5246 119.178 44.7588 119.178 57.3377C119.178 69.9165 109.531 80.1508 97.6783 80.1508C87.9225 80.1508 79.6767 73.2152 77.053 63.7498L69.7035 77.9752C75.8851 87.3753 86.081 93.5911 97.6783 93.5911C105.854 93.5911 113.361 90.5213 119.249 85.4233V91.4101H131.922V23.745H119.249V29.252H119.254Z" fill="#FFD401"/>
<path d="M457.907 23.478H445.414V91.2467H457.907V23.478Z" fill="white"/>
<path d="M535.737 23.7126H469.635V36.2533H510.261L468.163 90.8379H533.809V78.2972H493.633L535.737 23.7126Z" fill="white"/>
<path d="M401.354 21.6187C393.071 21.6187 385.466 24.6939 379.529 29.8138V0.0596924H367.035V56.2582C367.024 56.6672 367.002 57.0761 367.002 57.4905C367.002 57.9049 367.019 58.3138 367.035 58.7227V91.2412H379.529V85.1672C385.466 90.2816 393.076 93.3622 401.354 93.3622C420.296 93.3622 435.706 77.272 435.706 57.4905C435.706 37.709 420.296 21.6187 401.354 21.6187ZM401.354 80.8216C389.686 80.8216 380.121 71.0126 379.529 58.7118V56.2746C380.126 43.9738 389.686 34.1648 401.354 34.1648C413.408 34.1648 423.213 44.6281 423.213 57.4959C423.213 70.3583 413.408 80.8216 401.354 80.8216Z" fill="white"/>
</svg>
