<svg width="32" height="32" viewBox="0 0 32 32" fill="none" xmlns="http://www.w3.org/2000/svg">
<path fill-rule="evenodd" clip-rule="evenodd" d="M9.6 8H6.7089C8.88566 4.92591 12.1702 3.2 16 3.2C23.0692 3.2 28.8 8.93075 28.8 16H32C32 7.16344 24.8366 0 16 0C11.5132 0 7.56017 1.89202 4.8 5.23256V3.2H1.6V11.2H9.6V8ZM22.4 24H25.2911C23.1143 27.0741 19.8298 28.8 16 28.8C8.93075 28.8 3.2 23.0692 3.2 16H0C0 24.8366 7.16344 32 16 32C20.4868 32 24.4398 30.108 27.2 26.7674V28.8H30.4V20.8H22.4V24ZM16.0005 22.3973C16.8845 22.3973 17.601 21.6809 17.601 20.7973C17.601 19.9136 16.8845 19.1973 16.0005 19.1973C15.1166 19.1973 14.4 19.9136 14.4 20.7973C14.4 21.6809 15.1166 22.3973 16.0005 22.3973ZM17.6058 7.99727H14.4047V17.5973H17.6058V7.99727Z" fill="#D0D9DE"/>
</svg>
