<svg width="40" height="48" viewBox="0 0 40 48" fill="none" xmlns="http://www.w3.org/2000/svg">
<path fill-rule="evenodd" clip-rule="evenodd" d="M5.0606 0H27.7825L39.9697 12.1872V43.6364C39.9697 46.0463 38.016 48 35.6061 48H5.0606C2.65063 48 0.69696 46.0463 0.69696 43.6364V4.36364C0.69696 1.95367 2.65063 0 5.0606 0ZM22.5151 4.36364H5.0606V43.6364H35.6061V17.4545H26.8788C24.4688 17.4545 22.5151 15.5009 22.5151 13.0909V4.36364ZM26.8788 5.26737V13.0909H34.7023L26.8788 5.26737ZM18.1514 35.8235L27.5177 26.4572L30.6033 29.5427L18.1514 41.9946L10.0632 33.9063L13.1487 30.8208L18.1514 35.8235ZM27.5177 18L18.1514 27.3663L13.1487 22.3636L10.0632 25.4492L18.1514 33.5374L30.6033 21.0856L27.5177 18Z" fill="#152338"/>
</svg>
