<svg width="123" height="100" viewBox="0 0 123 100" fill="none" xmlns="http://www.w3.org/2000/svg">
<path fill-rule="evenodd" clip-rule="evenodd" d="M122.222 88.8889C122.222 95.0254 117.248 100 111.111 100H44.4444C38.3079 100 33.3333 95.0254 33.3333 88.8889V11.1111C33.3333 4.97461 38.3079 0 44.4444 0H111.111C117.248 0 122.222 4.97461 122.222 11.1111V88.8889ZM27.7778 94.4445C21.6413 94.4445 16.6667 89.4699 16.6667 83.3334V16.6667C16.6667 10.5302 21.6413 5.5556 27.7778 5.5556V94.4445ZM0 77.7777C0 83.9142 4.97461 88.8888 11.1111 88.8888V11.1111C4.97461 11.1111 0 16.0857 0 22.2222V77.7777ZM111.11 88.8888V11.1111H44.4438V88.8888H111.11ZM88.8889 50L66.6667 33.3333V66.6667L88.8889 50Z" fill="#617E8C"/>
</svg>
