<svg width="59" height="48" viewBox="0 0 59 48" fill="none" xmlns="http://www.w3.org/2000/svg">
<path fill-rule="evenodd" clip-rule="evenodd" d="M58.6667 42.6667C58.6667 45.6122 56.2789 48 53.3333 48H21.3333C18.3878 48 16 45.6122 16 42.6667V5.33333C16 2.38781 18.3878 0 21.3333 0H53.3333C56.2789 0 58.6667 2.38781 58.6667 5.33333V42.6667ZM13.3333 45.3333C10.3878 45.3333 8 42.9455 8 40V8C8 5.05448 10.3878 2.66667 13.3333 2.66667V45.3333ZM0 37.3333C0 40.2789 2.38781 42.6667 5.33333 42.6667V5.33333C2.38781 5.33333 0 7.72115 0 10.6667V37.3333ZM53.3333 42.6667V5.33333H21.3333V42.6667H53.3333ZM42.6667 24L32 16V32L42.6667 24Z" fill="#152338"/>
</svg>
