<svg width="100" height="91" viewBox="0 0 100 91" fill="none" xmlns="http://www.w3.org/2000/svg">
<path fill-rule="evenodd" clip-rule="evenodd" d="M97.4636 63.4223L65.6217 8.989C62.425 3.4472 56.4668 0.00755515 50.0232 1.24336e-05C43.5789 -0.00753109 37.6186 3.41791 34.3821 8.98923L2.52849 63.4425C-0.774505 68.9963 -0.849229 75.9555 2.35009 81.6311C5.55208 87.3115 11.5476 90.8465 18.069 90.8995L81.8762 90.8998C88.4654 90.8357 94.4495 87.3115 97.651 81.6363C100.849 75.9677 100.777 69.0239 97.4636 63.4223ZM10.3588 68.0607L42.236 13.5673C43.8504 10.7884 46.8112 9.08682 50.0128 9.09056C53.214 9.09431 56.1737 10.8029 57.7613 13.5551L89.6283 68.0315C91.2986 70.8552 91.3344 74.3315 89.7334 77.1696C88.1301 80.0117 85.1328 81.7769 81.8321 81.8091L18.1062 81.8087C14.8762 81.7823 11.8731 80.0117 10.2695 77.1669C8.66773 74.3253 8.70514 70.8414 10.3588 68.0607ZM50.0043 72.7181C52.5155 72.7181 54.5512 70.683 54.5512 68.1727C54.5512 65.6624 52.5155 63.6273 50.0043 63.6273C47.4932 63.6273 45.4575 65.6624 45.4575 68.1727C45.4575 70.683 47.4932 72.7181 50.0043 72.7181ZM54.5646 27.2644H45.4709V59.082H54.5646V27.2644Z" fill="#617E8C"/>
</svg>
